<svg width="256" height="256" viewBox="0 0 256 256" fill="none" xmlns="http://www.w3.org/2000/svg">
<path fill-rule="evenodd" clip-rule="evenodd" d="M234.667 1.41933e-05H117.333C111.676 0.00284062 106.252 2.25136 102.251 6.25152C98.2513 10.2517 96.0028 15.6763 96 21.3333V42.6667C96.0028 48.3238 98.2513 53.7483 102.251 57.7485C106.252 61.7487 111.676 63.9972 117.333 64H192V138.667C192.003 144.324 194.251 149.748 198.251 153.748C202.252 157.749 207.676 159.997 213.333 160H234.667C240.324 159.998 245.749 157.749 249.749 153.749C253.749 149.749 255.998 144.324 256 138.667V21.3333C256.003 18.5361 255.454 15.7657 254.385 13.1809C253.315 10.5961 251.746 8.24764 249.768 6.27015L249.731 6.23281C247.753 4.25394 245.405 2.68476 242.82 1.61522C240.235 0.545669 237.464 -0.00321814 234.667 1.41933e-05Z" fill="#556FF6"/>
<path d="M198.251 249.748C194.251 245.748 192.003 240.324 192 234.667V213.333C192.003 207.676 194.251 202.252 198.251 198.252C202.252 194.251 207.676 192.003 213.333 192H234.667C240.324 192.002 245.749 194.251 249.749 198.251C253.749 202.251 255.998 207.676 256 213.333V234.667C255.998 240.324 253.749 245.749 249.749 249.749C245.749 253.749 240.324 255.998 234.667 256H213.333C207.676 255.997 202.252 253.749 198.251 249.748Z" fill="#556FF6"/>
<path d="M138.667 256H21.3333C18.5362 256.003 15.766 255.454 13.1815 254.385C10.597 253.315 8.24891 251.746 6.27198 249.767L6.23468 249.73C4.25582 247.753 2.68652 245.404 1.61668 242.819C0.546826 240.235 -0.00255275 237.464 8.91727e-06 234.667V117.333C0.00283534 111.676 2.25134 106.252 6.2515 102.252C10.2517 98.2513 15.6763 96.0028 21.3333 96H42.6667C48.3239 96.0024 53.7487 98.2508 57.749 102.251C61.7492 106.251 63.9976 111.676 64 117.333V192H96V117.333C96.0028 111.676 98.2513 106.252 102.251 102.252C106.252 98.2513 111.676 96.0028 117.333 96H138.667C144.324 96.0024 149.749 98.2508 153.749 102.251C157.749 106.251 159.998 111.676 160 117.333V234.667C160.003 237.464 159.454 240.234 158.385 242.819C157.315 245.404 155.746 247.752 153.768 249.73L153.731 249.767C151.753 251.746 149.405 253.315 146.82 254.385C144.235 255.455 141.464 256.003 138.667 256Z" fill="#556FF6"/>
</svg>
