<?xml version="1.0" encoding="UTF-8" standalone="no"?>
<!DOCTYPE svg PUBLIC "-//W3C//DTD SVG 1.1//EN" "http://www.w3.org/Graphics/SVG/1.1/DTD/svg11.dtd">
<svg width="100%" height="100%" viewBox="0 0 76 30" version="1.1" xmlns="http://www.w3.org/2000/svg" xmlns:xlink="http://www.w3.org/1999/xlink" xml:space="preserve" xmlns:serif="http://www.serif.com/" style="fill-rule:evenodd;clip-rule:evenodd;stroke-linejoin:round;stroke-miterlimit:2;">
    <g id="Artboard1" transform="matrix(0.424959,0,0,0.29671,0,0)">
        <rect x="0" y="0" width="177.78" height="100" style="fill:none;"/>
        <g transform="matrix(2.35317,0,0,3.37029,-55.9615,-118.759)">
            <rect x="55.32" y="42.25" width="3" height="14.45" style="fill:rgb(57,65,73);fill-rule:nonzero;"/>
        </g>
        <g transform="matrix(2.35317,0,0,3.37029,-55.9615,-118.759)">
            <path d="M60,51.75C60,48.87 62.37,46.5 65.25,46.5C68.13,46.5 70.5,48.87 70.5,51.75C70.5,54.63 68.13,57 65.25,57C65.24,57 65.23,57 65.22,57C65.207,57 65.193,57 65.18,57C62.338,57 60,54.662 60,51.82C60,51.797 60,51.773 60,51.75ZM67.52,51.75C67.488,50.522 66.469,49.53 65.241,49.53C63.99,49.53 62.961,50.559 62.961,51.81C62.961,53.06 63.99,54.09 65.24,54.09C65.254,54.09 65.269,54.09 65.283,54.09C66.501,54.09 67.503,53.088 67.503,51.87C67.503,51.83 67.502,51.79 67.5,51.75L67.52,51.75Z" style="fill:rgb(57,65,73);fill-rule:nonzero;"/>
        </g>
        <g transform="matrix(2.35317,0,0,3.37029,-55.9615,-118.759)">
            <path d="M82.31,46.8L82.31,56.21C82.31,59.53 79.71,60.94 77.08,60.94C75.191,61.095 73.369,60.163 72.39,58.54L74.92,57.08C75.339,57.924 76.242,58.424 77.18,58.33C77.261,58.34 77.343,58.345 77.425,58.345C78.522,58.345 79.425,57.442 79.425,56.345C79.425,56.3 79.423,56.255 79.42,56.21L79.42,55.3C78.713,56.158 77.64,56.633 76.53,56.58C73.787,56.58 71.53,54.323 71.53,51.58C71.53,48.837 73.787,46.58 76.53,46.58C77.64,46.527 78.713,47.002 79.42,47.86L79.42,46.86L82.31,46.8ZM79.42,51.55C79.421,51.517 79.422,51.483 79.422,51.45C79.422,50.133 78.339,49.05 77.022,49.05C75.705,49.05 74.622,50.133 74.622,51.45C74.622,52.766 75.704,53.849 77.02,53.85C77.074,53.854 77.127,53.856 77.181,53.856C78.41,53.856 79.421,52.845 79.421,51.616C79.421,51.594 79.421,51.572 79.42,51.55Z" style="fill:rgb(57,65,73);fill-rule:nonzero;"/>
        </g>
        <g transform="matrix(2.35317,0,0,3.37029,-55.9615,-118.759)">
            <path d="M84,51.75C84,48.87 86.37,46.5 89.25,46.5C92.13,46.5 94.5,48.87 94.5,51.75C94.5,54.63 92.13,57 89.25,57C89.247,57 89.243,57 89.24,57C89.223,57 89.206,57 89.19,57C86.343,57 84,54.657 84,51.81C84,51.79 84,51.77 84,51.75ZM91.52,51.75C91.488,50.522 90.469,49.53 89.241,49.53C87.99,49.53 86.961,50.559 86.961,51.81C86.961,53.061 87.99,54.09 89.241,54.09C89.244,54.09 89.247,54.09 89.25,54.09C89.264,54.09 89.279,54.09 89.293,54.09C90.511,54.09 91.513,53.088 91.513,51.87C91.513,51.83 91.512,51.79 91.51,51.75L91.52,51.75Z" style="fill:rgb(57,65,73);fill-rule:nonzero;"/>
        </g>
        <g transform="matrix(2.35317,0,0,3.37029,-55.9615,-118.759)">
            <path d="M37.45,39.65L37.45,35.4L24.05,35.4L24.05,64.6L37.45,64.6L37.45,60.35C31.772,60.35 27.1,55.678 27.1,50C27.1,44.322 31.772,39.65 37.45,39.65Z" style="fill:rgb(57,65,73);fill-rule:nonzero;"/>
        </g>
        <g transform="matrix(2.35317,0,0,3.37029,-55.9615,-118.759)">
            <path d="M37.45,39.65L37.45,60.35C43.128,60.35 47.8,55.678 47.8,50C47.8,44.322 43.128,39.65 37.45,39.65Z" style="fill:rgb(57,65,73);fill-rule:nonzero;"/>
        </g>
        <g transform="matrix(2.35317,0,0,3.37029,-184.962,-118.759)">
            <circle cx="151.52" cy="44.54" r="2.2" style="fill:rgb(57,65,73);"/>
        </g>
    </g>
</svg>
